<mxfile host="app.diagrams.net" modified="2024-04-25T10:05:41.548Z" agent="Mozilla/5.0 (X11; Linux x86_64; rv:125.0) Gecko/20100101 Firefox/125.0" version="24.3.0" etag="0FA-YQEXk7vFb4sqK1vI" type="github">
  <diagram name="Page-1" id="ge9g_zCSRTpjsII14MZi">
    <mxGraphModel>
      <root>
        <mxCell id="0" />
        <mxCell id="1" parent="0" />
      </root>
    </mxGraphModel>
  </diagram>
</mxfile>
